# xmcd CD database file
#
# Track frame offsets:
#	225
#	17614
#	58988
#	64905
#	78285
#	110303
#	117288
#	122642
#	128928
#	142966
#	158787
#	177389
#	190771
#	203239
#	222584
#	233736
#	244706
#	262012
#
# Disc length: 3682 seconds
#
# Revision: 1
# Processed by: cddbd v1.4PL0 Copyright (c) Steve Scherf et al.
# Submitted via: CDex 1.50
#
DISCID=070e5f12
DTITLE=Various Artist - Egü
DYEAR=1996
DGENRE=New Age
TTITLE0=Intro
TTITLE1=Dive City
TTITLE2=Eddie
TTITLE3=Pulse
TTITLE4=Quiiek
TTITLE5=Im Zirkus
TTITLE6=Yffic et les Dockers
TTITLE7=Unkown
TTITLE8=Jano
TTITLE9=Belle Sirène
TTITLE10=Strange
TTITLE11=Coral Riffs
TTITLE12=Habegger! Hoo Stop
TTITLE13=Massawaya
TTITLE14=Diaboline
TTITLE15=Provisorium
TTITLE16=Long Road
TTITLE17=no more suffering
EXTD=YEAR: 1996
EXTT0=
EXTT1=
EXTT2=
EXTT3=
EXTT4=
EXTT5=
EXTT6=
EXTT7=
EXTT8=
EXTT9=
EXTT10=
EXTT11=
EXTT12=
EXTT13=
EXTT14=
EXTT15=
EXTT16=
EXTT17=
PLAYORDER=
